<svg width="32" height="32" viewBox="0 0 32 32" fill="none" xmlns="http://www.w3.org/2000/svg">
    <path fill-rule="evenodd" clip-rule="evenodd" d="M15.404 4.08532C15.5813 4.16363 15.732 4.29176 15.8378 4.45415C15.9436 4.61654 16 4.80617 16 4.99999V27C16.0001 27.1939 15.9439 27.3836 15.8381 27.5461C15.7324 27.7086 15.5817 27.8368 15.4044 27.9152C15.2271 27.9936 15.0309 28.0188 14.8395 27.9877C14.6482 27.9566 14.47 27.8705 14.3266 27.74L7.27998 21.3333H3.66665C3.04781 21.3333 2.45432 21.0875 2.01673 20.6499C1.57915 20.2123 1.33331 19.6188 1.33331 19V13C1.33331 11.712 2.37865 10.6667 3.66665 10.6667H7.27998L14.3266 4.25999C14.4701 4.12986 14.6483 4.0442 14.8396 4.01343C15.0308 3.98266 15.2269 4.0081 15.404 4.08666V4.08532ZM14 7.25999L8.33998 12.4067C8.15573 12.5741 7.91563 12.6668 7.66665 12.6667H3.66665C3.57824 12.6667 3.49346 12.7018 3.43094 12.7643C3.36843 12.8268 3.33331 12.9116 3.33331 13V19C3.33331 19.184 3.48265 19.3333 3.66665 19.3333H7.66665C7.91563 19.3331 8.15573 19.4259 8.33998 19.5933L14 24.74V7.25999Z" fill="#2B2D42"/>
</svg>
